<?xml version="1.0" standalone="no"?>
<!DOCTYPE svg PUBLIC "-//W3C//DTD SVG 20010904//EN"
 "http://www.w3.org/TR/2001/REC-SVG-20010904/DTD/svg10.dtd">
<svg version="1.0" xmlns="http://www.w3.org/2000/svg"
 width="700.000000pt" height="700.000000pt" viewBox="0 0 700.000000 700.000000"
 preserveAspectRatio="xMidYMid meet">
<metadata>
Created by potrace 1.14, written by Peter Selinger 2001-2017
</metadata>
<g transform="translate(0.000000,700.000000) scale(0.100000,-0.100000)"
fill="#000000" stroke="none">
<path d="M539 5829 c-92 -14 -182 -82 -223 -169 l-21 -45 0 -2115 0 -2115 22
-45 c68 -137 219 -203 361 -156 39 13 167 104 332 236 31 25 8 7 405 315 182
141 342 266 357 278 15 12 40 32 55 44 15 11 94 72 174 135 80 62 159 123 175
135 16 12 40 31 54 42 14 11 153 120 310 242 157 121 299 231 315 244 17 14
136 107 265 207 334 260 338 263 366 351 11 35 13 -124 13 -974 1 -1124 -2
-1073 66 -1162 48 -63 142 -109 221 -108 108 1 129 13 439 256 17 13 96 75
176 137 80 62 161 125 180 140 80 64 569 443 619 481 30 23 60 46 66 51 6 6
26 22 44 36 34 26 648 502 715 555 92 73 166 131 366 285 117 91 225 178 240
194 65 69 92 184 66 274 -25 81 -64 123 -249 267 -99 77 -223 174 -277 216
-83 65 -396 308 -616 479 -38 30 -134 104 -212 165 -327 255 -440 343 -508
395 -85 65 -690 536 -813 633 -48 37 -108 74 -134 83 -143 47 -299 -19 -362
-155 -21 -46 -21 -51 -26 -1080 -4 -825 -7 -1025 -17 -990 -6 25 -26 62 -42
83 -17 21 -320 263 -673 538 -354 275 -652 507 -663 516 -11 9 -47 37 -80 62
-33 25 -62 47 -65 51 -3 3 -41 33 -85 66 -44 34 -312 242 -595 463 -283 221
-533 412 -555 425 -49 29 -125 43 -186 34z m789 -1236 c392 -304 635 -493 710
-552 12 -10 173 -134 357 -277 184 -142 334 -261 334 -264 0 -4 -811 -638
-926 -723 -21 -16 -54 -41 -73 -57 -66 -53 -849 -660 -852 -660 -2 0 -3 648
-3 1440 0 792 2 1440 3 1440 2 0 205 -156 450 -347z m2837 288 c33 -25 65 -49
70 -54 11 -8 311 -242 464 -360 51 -39 98 -77 105 -83 6 -5 36 -29 66 -51 30
-23 145 -111 255 -197 110 -86 294 -229 409 -318 115 -90 254 -198 308 -241
l100 -79 -44 -31 c-23 -17 -45 -34 -48 -37 -5 -6 -171 -135 -745 -581 -358
-278 -493 -383 -847 -659 -92 -71 -169 -130 -170 -130 -2 0 -4 648 -4 1439 0
1007 3 1438 10 1434 6 -4 38 -27 71 -52z"/>
</g>
</svg>
