<?xml version="1.0" standalone="no"?>
<!DOCTYPE svg PUBLIC "-//W3C//DTD SVG 20010904//EN"
 "http://www.w3.org/TR/2001/REC-SVG-20010904/DTD/svg10.dtd">
<svg version="1.0" xmlns="http://www.w3.org/2000/svg"
 width="700.000000pt" height="700.000000pt" viewBox="0 0 700.000000 700.000000"
 preserveAspectRatio="xMidYMid meet">
<metadata>
Created by potrace 1.14, written by Peter Selinger 2001-2017
</metadata>
<g transform="translate(0.000000,700.000000) scale(0.100000,-0.100000)"
fill="#000000" stroke="none">
<path d="M489 5969 c-169 -39 -313 -192 -337 -359 -4 -30 -7 -991 -7 -2135 1
-1955 2 -2084 19 -2139 70 -237 327 -370 559 -291 64 22 104 48 286 190 85 66
175 136 200 155 25 20 199 155 386 300 187 146 356 277 375 292 75 57 476 370
494 385 11 9 38 30 60 47 23 17 211 164 419 326 208 162 386 300 395 307 16
11 17 -45 17 -815 -1 -888 -2 -872 52 -977 81 -161 279 -260 455 -227 120 22
125 26 843 586 17 13 158 123 315 245 157 121 296 230 310 241 14 11 75 58
135 105 61 47 162 126 225 175 122 95 445 346 495 385 17 13 84 66 150 117 66
51 125 97 131 103 7 5 44 35 84 65 241 183 301 271 301 448 1 121 -36 214
-118 300 -38 39 -1081 855 -2634 2059 -103 80 -170 109 -274 119 -212 21 -425
-142 -462 -351 -5 -27 -9 -417 -9 -866 l1 -817 -30 21 c-16 12 -32 24 -35 27
-4 6 -268 212 -339 265 -14 11 -87 67 -161 125 -74 58 -151 117 -170 132 -19
14 -103 80 -186 145 -83 65 -166 129 -184 143 -18 14 -59 45 -90 70 -87 69
-112 88 -295 229 -93 73 -181 141 -194 151 -26 21 -122 95 -255 198 -44 35
-96 76 -115 90 -19 15 -69 54 -112 87 -43 33 -142 110 -222 172 -150 116 -185
139 -252 162 -47 17 -174 22 -226 10z m884 -1595 c188 -146 351 -273 362 -282
12 -9 50 -39 85 -67 36 -27 72 -55 80 -62 21 -17 480 -373 520 -403 18 -14 42
-33 54 -43 21 -19 21 -19 1 -33 -11 -8 -34 -26 -51 -39 -17 -14 -130 -101
-250 -195 -273 -211 -262 -203 -277 -215 -20 -17 -458 -358 -488 -380 -15 -11
-106 -82 -203 -158 -97 -75 -178 -137 -181 -137 -3 0 -5 513 -5 1140 0 627 2
1140 5 1140 3 0 159 -120 348 -266z m3056 119 c103 -82 203 -159 221 -173 18
-14 180 -140 360 -280 180 -140 342 -266 360 -280 29 -22 187 -145 215 -168 6
-4 34 -26 63 -47 28 -22 52 -42 52 -45 -1 -3 -212 -169 -471 -370 -539 -419
-470 -365 -669 -520 -85 -67 -188 -146 -227 -177 -40 -30 -75 -59 -79 -64 -3
-5 -9 -9 -15 -9 -5 0 -9 434 -9 1140 0 627 2 1140 5 1140 3 0 90 -66 194 -147z"/>
</g>
</svg>
